<svg width="31" height="42" viewBox="0 0 31 42" fill="none" xmlns="http://www.w3.org/2000/svg">
<path d="M10.0186 0.5H24.3076C24.636 0.506682 24.9585 0.591285 25.2529 0.749023C25.5497 0.926553 25.8082 1.17702 26.0049 1.48047C26.1845 1.78886 26.2945 2.13608 26.3271 2.50098V2.50195C26.3601 2.85841 26.3053 3.21755 26.168 3.54199L26.1641 3.5498L21.4453 15.2422L21.168 15.9297H29.1064C29.3629 15.9404 29.6145 16.0233 29.835 16.1738C30.0707 16.3419 30.2601 16.5819 30.376 16.8682C30.4893 17.1484 30.525 17.4587 30.4805 17.7617H30.4756C30.4418 18.0359 30.3331 18.2899 30.168 18.4941L10.9268 40.9668L10.9141 40.9814L10.9023 40.9971C10.7294 41.2348 10.4952 41.4036 10.2363 41.4902C10.1269 41.5012 10.0177 41.5023 9.9082 41.4883L9.87793 41.4844H9.84766C9.64565 41.4834 9.44515 41.437 9.25879 41.3477C8.97531 41.206 8.74139 40.9567 8.6084 40.6377L8.60547 40.6299L8.60254 40.623L8.55859 40.5156C8.46641 40.2612 8.44479 39.9812 8.49902 39.7109L8.50293 39.6904L8.50586 39.6709L10.2041 25.2705L10.2695 24.7119H2.56445C2.22888 24.6887 1.89948 24.6012 1.59082 24.4541C1.30245 24.2906 1.05126 24.0552 0.862305 23.7627C0.695097 23.5039 0.581097 23.2088 0.52832 22.8975L0.509766 22.7637C0.476953 22.3997 0.527887 22.0332 0.657227 21.6963L0.658203 21.6934L8.11914 1.8623C8.28185 1.449 8.54851 1.09996 8.88574 0.852539C9.22545 0.617754 9.61951 0.496256 10.0186 0.5Z" fill="#FFAB24" stroke="black"/>
</svg>
